<svg xmlns="http://www.w3.org/2000/svg" xmlns:xlink="http://www.w3.org/1999/xlink" viewBox="0 0 2257.5 384.02"><defs><style>.a{fill:url(#a);}.b{fill:url(#b);}.c{fill:url(#c);}.d{fill:url(#d);}.e{fill:url(#e);}.f{fill:url(#f);}.g{fill:url(#g);}.h{fill:url(#h);}.i{fill:url(#i);}.j{fill:url(#j);}.k{fill:url(#k);}</style><linearGradient id="a" x1="12.97" y1="327.22" x2="2409.55" y2="341.71" gradientUnits="userSpaceOnUse"><stop offset="0" stop-color="#fff"/><stop offset="0" stop-color="#0073e6"/><stop offset="1" stop-color="#39f"/></linearGradient><linearGradient id="b" x1="13.82" y1="185.59" x2="2410.41" y2="200.08" xlink:href="#a"/><linearGradient id="c" x1="13.66" y1="212.4" x2="2410.25" y2="226.9" xlink:href="#a"/><linearGradient id="d" x1="13.92" y1="170.21" x2="2410.5" y2="184.71" xlink:href="#a"/><linearGradient id="e" x1="13.67" y1="210.39" x2="2410.26" y2="224.89" xlink:href="#a"/><linearGradient id="f" x1="13.67" y1="210.34" x2="2410.26" y2="224.83" xlink:href="#a"/><linearGradient id="g" x1="13.93" y1="167.69" x2="2410.52" y2="182.18" xlink:href="#a"/><linearGradient id="h" x1="13.45" y1="247.26" x2="2410.04" y2="261.76" xlink:href="#a"/><linearGradient id="i" x1="13.95" y1="164.11" x2="2410.54" y2="178.61" xlink:href="#a"/><linearGradient id="j" x1="13.71" y1="204.29" x2="2410.3" y2="218.79" xlink:href="#a"/><linearGradient id="k" x1="13.9" y1="173.41" x2="2410.48" y2="187.91" xlink:href="#a"/></defs><title>LOGO cloudplot azul 0.8</title><path class="a" d="M147.79,244.21l.13,131.43a38,38,0,0,0,38,38l238.4-.06a7.6,7.6,0,0,0,0-15.2,22.8,22.8,0,0,1-22.71-21.17v-133" transform="translate(-22.28 -29.6)"/><path class="b" d="M430.29,136.7a102,102,0,0,0-12,.71.28.28,0,0,1-.29-.19,85.32,85.32,0,0,0-81.34-60.08,83.72,83.72,0,0,0-27.13,4.49.28.28,0,0,1-.34-.15c-21.85-47-92.28-56.2-133-45.33-42.06,11.23-77.78,40.13-77.75,92a109.5,109.5,0,0,0,3.24,26.31.27.27,0,0,1-.22.34,93.6,93.6,0,0,0-78.93,99.35c3.59,48.73,40.07,86.51,88.93,86.73h15.67a.28.28,0,0,0,.27-.28V233.15a9.54,9.54,0,0,1,9.54-9.53H418.07a6.39,6.39,0,0,1,6.4,6.39V340.64a.28.28,0,0,0,.28.28h7.09c58.51,0,103.18-48.5,100.45-107A102.11,102.11,0,0,0,430.29,136.7ZM140.55,212.89a10,10,0,0,1,0-20h20.78a10,10,0,1,1,0,20Z" transform="translate(-22.28 -29.6)"/><path class="c" d="M703.05,323.5l-20.11-10.61a71.66,71.66,0,0,1-30.71-30.81q-10.61-20.2-10.6-48.81V199.06q0-28.22,10.6-48.22a71.4,71.4,0,0,1,30.71-30.51q20.1-10.5,48.52-10.5a115.6,115.6,0,0,1,30.51,3.9,90.79,90.79,0,0,1,25.7,11.3,70,70,0,0,1,19,18l-29.41,26.41A61.12,61.12,0,0,0,756.67,154a58.57,58.57,0,0,0-24.61-5.4q-23.61,0-36.62,13.2t-13,37.22v34.21q0,24.6,12.9,38t36.72,13.4a55.58,55.58,0,0,0,24.81-5.8,60.36,60.36,0,0,0,20.4-16.4l29.41,28.41a72.94,72.94,0,0,1-19.2,17.7,90.65,90.65,0,0,1-25.71,11.11,117.79,117.79,0,0,1-30.31,3.8Z" transform="translate(-22.28 -29.6)"/><path class="d" d="M892.51,266.88q0,7.61,3.3,11.7t9.31,4.1h19.2V321.5h-24q-23.2,0-35.91-14.41t-12.7-40.61V29.6h40.81Z" transform="translate(-22.28 -29.6)"/><path class="e" d="M1003.75,312.89A69.84,69.84,0,0,1,974.44,282q-10.11-20.3-10.11-48.91V199.26q0-28.22,10.11-48.32a69.49,69.49,0,0,1,29.31-30.61q19.2-10.5,46.21-10.5t46.22,10.5a69.6,69.6,0,0,1,29.31,30.61q10.1,20.1,10.1,48.32v34.41q0,28.41-10.1,48.51a70.15,70.15,0,0,1-29.31,30.71Q1077,323.5,1050,323.5T1003.75,312.89Zm79.33-41.61q11.7-13.39,11.7-37.61V199.26q0-24.21-11.7-37.42T1050,148.64q-21.4,0-33.11,13.2t-11.7,37.42v34.41q0,24.21,11.7,37.61t33.11,13.4Q1071.37,284.68,1083.08,271.28Z" transform="translate(-22.28 -29.6)"/><path class="f" d="M1229.42,239.07q0,21.81,11.11,33.71t31.31,11.9q20,0,31-10.6t11-30.21l2.8,43.42a59.77,59.77,0,0,1-20.8,25.8q-14.41,10.41-35.42,10.41-34.41,0-53.11-22.11t-18.71-62.32V112.83h40.81Zm84.43-126.24h40.62V320.5h-40.62Z" transform="translate(-22.28 -29.6)"/><path class="g" d="M1443.4,314.19q-16.11-9.9-24.51-28.91t-8.4-45.61V193.85q0-26.81,8.2-45.81t23.91-28.91q15.7-9.9,37.71-9.91a62.19,62.19,0,0,1,33.71,9.61q15.3,9.6,24.71,27l-4.2,42.41q0-13.2-4.8-22.61a32.86,32.86,0,0,0-13.91-14.3q-9.1-4.91-22.11-4.9-20.2,0-31.31,12.6t-11.1,35.41v45.22q0,22.61,11.1,34.91t31.31,12.3q13,0,22.11-5.1a33.76,33.76,0,0,0,13.91-14.7q4.8-9.6,4.8-23l2.8,43.81A59.1,59.1,0,0,1,1517,313.69q-14.1,10.41-34.71,10.41Q1459.5,324.1,1443.4,314.19ZM1534.53,29.6h40.81V320.5h-40.81Z" transform="translate(-22.28 -29.6)"/><path class="h" d="M1637.36,112.83h40.81V404.92h-40.81Zm59.22,201.36q-14.4-9.3-21.21-26.31l2.8-43.41q0,13.41,4.81,22.81a33.28,33.28,0,0,0,13.9,14.4q9.11,5,22.11,5,20.21,0,31.31-12.3t11.1-34.71v-45q0-22.8-11.1-35.41T1719,146.64q-13,0-22.11,4.8a32.27,32.27,0,0,0-13.9,14.1q-4.8,9.32-4.81,22.31l-4.2-40q9.4-18.21,24.61-28.11a60.67,60.67,0,0,1,33.81-9.9q22,0,37.72,9.9t23.9,28.91q8.21,19,8.21,45.81v45.22q0,26.4-8.41,45.21t-24.6,28.71q-16.21,9.92-38.82,9.91Q1711,323.5,1696.58,314.19Z" transform="translate(-22.28 -29.6)"/><path class="i" d="M1901.05,266.88q0,7.61,3.3,11.7t9.31,4.1h19.2V321.5h-24q-23.2,0-35.91-14.41t-12.7-40.61V29.6h40.81Z" transform="translate(-22.28 -29.6)"/><path class="j" d="M2012.29,312.89A69.84,69.84,0,0,1,1983,282q-10.11-20.3-10.1-48.91V199.26q0-28.22,10.1-48.32a69.49,69.49,0,0,1,29.31-30.61q19.2-10.5,46.21-10.5t46.22,10.5A69.6,69.6,0,0,1,2134,150.94q10.09,20.1,10.1,48.32v34.41q0,28.41-10.1,48.51a70.15,70.15,0,0,1-29.31,30.71q-19.2,10.61-46.22,10.61T2012.29,312.89Zm79.33-41.61q11.7-13.39,11.7-37.61V199.26q0-24.21-11.7-37.42t-33.12-13.2q-21.4,0-33.11,13.2t-11.7,37.42v34.41q0,24.21,11.7,37.61t33.11,13.4Q2079.9,284.68,2091.62,271.28Z" transform="translate(-22.28 -29.6)"/><path class="k" d="M2186.15,112.83h93.63v36.81h-93.63Zm33.11,194.76q-11.7-13.9-11.71-41.11V52.41h40.82V266.88q0,7.61,3,11.7t8.8,4.1h19.61V321.5h-23.61Q2231,321.5,2219.26,307.59Z" transform="translate(-22.28 -29.6)"/></svg>